<svg width="22" height="22" viewBox="0 0 22 22" fill="none" xmlns="http://www.w3.org/2000/svg">
<path d="M9.5 8C9.5 8.82843 8.82843 9.5 8 9.5C7.17157 9.5 6.5 8.82843 6.5 8C6.5 7.17157 7.17157 6.5 8 6.5C8.82843 6.5 9.5 7.17157 9.5 8Z" fill="#2770F1"/>
<path d="M14 9.5C14.8284 9.5 15.5 8.82843 15.5 8C15.5 7.17157 14.8284 6.5 14 6.5C13.1716 6.5 12.5 7.17157 12.5 8C12.5 8.82843 13.1716 9.5 14 9.5Z" fill="#2770F1"/>
<path fill-rule="evenodd" clip-rule="evenodd" d="M8 22V16H4C1.79086 16 0 14.2091 0 12V4C0 1.79086 1.79086 0 4 0H18C20.2091 0 22 1.79086 22 4V12C22 14.2091 20.2091 16 18 16H14L8 22ZM10 14V17.1716L13.1716 14H18C19.1046 14 20 13.1046 20 12V4C20 2.89543 19.1046 2 18 2H4C2.89543 2 2 2.89543 2 4V12C2 13.1046 2.89543 14 4 14H10Z" fill="#2770F1"/>
</svg>
