<svg width="24" height="24" viewBox="0 0 24 24" fill="none" xmlns="http://www.w3.org/2000/svg">
<path d="M10.2671 19.944C10.3567 19.9824 10.4511 20 10.5455 20C10.7343 20 10.9199 19.9264 11.0591 19.7872L13.9677 16.8784C14.1037 16.7424 14.1805 16.5568 14.1805 16.3648V12.2544L19.8409 5.1824C20.0153 4.9632 20.0489 4.664 19.9289 4.4128C19.8057 4.16 19.5513 4 19.2714 4H4.7283C4.44832 4 4.19393 4.16 4.07234 4.4112C3.95075 4.664 3.98435 4.9632 4.15874 5.1824L9.81757 12.256V19.2736C9.81757 19.5664 9.99516 19.832 10.2671 19.944ZM6.2402 5.4544H17.7595L12.8862 11.5456C12.7838 11.6752 12.7278 11.8352 12.7278 12V16.0624L11.2735 17.5168V12C11.2735 11.8352 11.2175 11.6752 11.1151 11.5456L6.2402 5.4544Z" fill="#276FEE"/>
</svg>
