<svg width="56" height="56" viewBox="0 0 56 56" fill="none" xmlns="http://www.w3.org/2000/svg">
<path d="M0 28C0 12.536 12.536 0 28 0C43.464 0 56 12.536 56 28C56 43.464 43.464 56 28 56H0V28Z" fill="#2770F1"/>
<path d="M28.094 14H27.906C26.2991 14 25 15.3412 25 17C25 18.6588 26.2991 20 27.906 20H28.094C29.7009 20 31 18.6588 31 17C31 15.3412 29.7009 14 28.094 14Z" fill="white"/>
<path d="M28.094 24H27.906C26.2991 24 25 25.3478 25 27.0148V38.9852C25 40.6522 26.2991 42 27.906 42H28.094C29.7009 42 31 40.6522 31 38.9852V27.0148C31 25.3478 29.7009 24 28.094 24Z" fill="white"/>
</svg>
