<svg width="17" height="21" viewBox="0 0 17 21" fill="none" xmlns="http://www.w3.org/2000/svg">
<path d="M0.00393069 8.60748C0.00393069 7.32509 -0.00491337 6.0427 0.00393069 4.76031C0.0216188 2.1071 2.04691 0.0464313 4.70013 0.0198991C7.23837 -0.00663304 9.76777 -0.00663304 12.306 0.0198991C14.9592 0.0464313 16.9845 2.1071 16.9934 4.76031C17.0022 7.25434 17.0022 9.73952 16.9934 12.2335C16.9757 16.6556 13.6238 20.3701 9.33441 20.7327C4.8151 21.113 0.897181 18.1237 0.118904 13.684C0.0393072 13.2064 0.0127748 12.72 0.00393069 12.2335C-0.00491337 11.0219 0.00393069 9.81912 0.00393069 8.60748ZM1.9054 11.3668C1.74621 14.1262 2.63946 16.3814 5.00082 17.8495C7.38872 19.3265 9.85621 19.2823 12.1999 17.7257C14.4374 16.2311 15.2599 14.0289 15.1007 11.3668C10.6964 11.3668 6.32743 11.3668 1.9054 11.3668ZM15.0919 9.40345C15.1007 9.2531 15.1096 9.13812 15.1096 9.02315C15.1096 7.62579 15.1184 6.22843 15.1096 4.82222C15.0919 3.08879 13.8803 1.89484 12.138 1.886C9.70586 1.886 7.27375 1.886 4.84163 1.886C3.10819 1.886 1.89656 3.08879 1.87887 4.82222C1.87003 6.21958 1.87887 7.61695 1.87887 9.02315C1.87887 9.13812 1.89656 9.2531 1.9054 9.3946C6.3009 9.40344 10.6699 9.40345 15.0919 9.40345Z" fill="white"/>
<path d="M11.3151 4.7156C11.3151 5.3789 11.3151 5.96261 11.3151 6.59938C10.7049 6.59938 10.1123 6.59938 9.46673 6.59938C9.46673 7.245 9.46673 7.84639 9.46673 8.47432C8.82112 8.47432 8.22856 8.47432 7.56526 8.47432C7.56526 7.87292 7.56526 7.26268 7.56526 6.62591C6.91964 6.62591 6.32709 6.62591 5.70801 6.62591C5.70801 5.98029 5.70801 5.3789 5.70801 4.72444C6.3094 4.72444 6.9108 4.72444 7.55642 4.72444C7.55642 4.08767 7.55642 3.48627 7.55642 2.86719C8.20203 2.86719 8.80343 2.86719 9.44904 2.86719C9.44904 3.47743 9.44904 4.07882 9.44904 4.7156C10.0858 4.7156 10.6872 4.7156 11.3151 4.7156Z" fill="white"/>
</svg>
