<svg width="32" height="32" viewBox="0 0 32 32" fill="none" xmlns="http://www.w3.org/2000/svg">
<path d="M13.5 5C12.9477 5 12.5 5.44772 12.5 6C12.5 6.55228 12.9477 7 13.5 7H18.5C19.0523 7 19.5 6.55228 19.5 6C19.5 5.44772 19.0523 5 18.5 5H13.5Z" fill="#2770F1"/>
<path d="M15 25C15 24.4477 15.4477 24 16 24C16.5523 24 17 24.4477 17 25C17 25.5523 16.5523 26 16 26C15.4477 26 15 25.5523 15 25Z" fill="#2770F1"/>
<path fill-rule="evenodd" clip-rule="evenodd" d="M8 6C8 3.79086 9.79086 2 12 2H20C22.2091 2 24 3.79086 24 6V25C24 27.2091 22.2091 29 20 29H12C9.79086 29 8 27.2091 8 25V6ZM12 4C10.8954 4 10 4.89543 10 6V8H22V6C22 4.89543 21.1046 4 20 4H12ZM10 21V10H22V21H10ZM10 23V25C10 26.1046 10.8954 27 12 27H20C21.1046 27 22 26.1046 22 25V23H10Z" fill="#2770F1"/>
</svg>
